<svg width="45" height="45" viewBox="0 0 45 45" fill="none" xmlns="http://www.w3.org/2000/svg">
<g clip-path="url(#clip0_1325_2052)">
<path d="M33.7595 18.17C32.5861 16.51 31.5595 14.9733 30.6795 13.56C29.7695 12.14 28.7595 10.33 27.6295 8.12C26.6103 6.15723 25.7637 4.10951 25.0995 2L24.0995 0.56L22.4995 0L20.9395 0.52L19.8995 2C19.2337 4.12333 18.3838 6.18448 17.3595 8.16C16.2395 10.3733 15.2395 12.1867 14.3595 13.6C13.4795 15.0133 12.4495 16.55 11.2695 18.21L9.31948 20.94C7.71137 23.4506 6.85438 26.3685 6.84948 29.35C6.81748 31.4085 7.20734 33.4518 7.99502 35.3539C8.7827 37.2561 9.95152 38.9768 11.4295 40.41C12.8634 41.8905 14.5854 43.0616 16.4893 43.851C18.3932 44.6405 20.4386 45.0315 22.4995 45C24.5603 45.0315 26.6058 44.6405 28.5097 43.851C30.4136 43.0616 32.1356 41.8905 33.5695 40.41C35.0474 38.9768 36.2163 37.2561 37.0039 35.3539C37.7916 33.4518 38.1815 31.4085 38.1495 29.35C38.1627 26.3645 37.3005 23.4406 35.6695 20.94C35.5495 20.76 34.9195 19.84 33.7595 18.17ZM21.3495 36C20.6149 36.731 19.6208 37.1413 18.5845 37.1413C17.5482 37.1413 16.5541 36.731 15.8195 36C15.4504 35.6401 15.1581 35.209 14.9604 34.7329C14.7628 34.2568 14.6638 33.7455 14.6695 33.23L15.2795 31.12L15.7595 30.43L16.5395 29.27L17.2995 28L17.9395 26.45L18.5895 25.96L19.2295 26.45L19.8695 28L20.6395 29.34L21.4095 30.5L21.8895 31.19L22.4995 33.3C22.498 33.8041 22.3955 34.3027 22.198 34.7665C22.0005 35.2303 21.7119 35.6497 21.3495 36Z" fill="#462D2D"/>
</g>
<defs>
<clipPath id="clip0_1325_2052">
<rect width="45" height="45" fill="white"/>
</clipPath>
</defs>
</svg>
